<?xml version="1.0" standalone="no"?><svg xmlns:xlink="http://www.w3.org/1999/xlink" xmlns="http://www.w3.org/2000/svg" viewBox="0 0 1000 1000" preserveAspectRatio="xMaxYMax slice"><g transform="scale(3.0303030303030303)"><rect x="0" y="0" width="330" height="330" fill="#f0f0f0"/><rect x="0" y="0" width="82.5" height="82.5" fill="#2cd3a9"/><polygon points="82.5,0 82.5,82.5 0,82.5" fill="#dfe9f3"/><rect x="82.5" y="0" width="82.5" height="82.5" fill="#badaf9"/><polygon points="82.5,0 165,0 82.5,82.5" fill="#919191"/><rect x="165" y="0" width="82.5" height="82.5" fill="#f0f0f0"/><rect x="165" y="0" width="41.25" height="41.25" fill="#545454"/><path d="M 165 0 A 41.25 41.25 0 0 0 206.25 41.25 L 206.25 0" fill="#979797"/><rect x="206.25" y="0" width="41.25" height="41.25" fill="#05cd9b"/><path d="M 206.25 41.25 A 41.25 41.25 0 0 0 247.5 0 L 206.25 0" fill="#edeff1"/><rect x="165" y="41.25" width="41.25" height="41.25" fill="#11cf9f"/><path d="M 165 82.5 A 41.25 41.25 0 0 1  206.25 41.25 L 206.25 82.5" fill="#373737"/><rect x="206.25" y="41.25" width="41.25" height="41.25" fill="#5c5c5c"/><path d="M 206.25 41.25 A 41.25 41.25 0 0 1 247.5 82.5 L 206.25 82.5" fill="#dbdbdb"/><rect x="247.5" y="0" width="82.5" height="82.5" fill="#f0f0f0"/><rect x="247.5" y="0" width="41.25" height="41.25" fill="#a7d2fd"/><polygon points="288.75,0 288.75,41.25 247.5,41.25" fill="#79dec5"/><rect x="288.75" y="0" width="41.25" height="41.25" fill="#6ddcc1"/><polygon points="288.75,0 330,41.25 288.75,41.25" fill="#9d9d9d"/><rect x="247.5" y="41.25" width="41.25" height="41.25" fill="#e5e5e5"/><polygon points="247.5,41.25 288.75,41.25 247.5,82.5" fill="#bce8dd"/><rect x="288.75" y="41.25" width="41.25" height="41.25" fill="#09cd9c"/><polygon points="288.75,41.25 330,41.25 330,82.5" fill="#75dec3"/><rect x="0" y="82.5" width="82.5" height="82.5" fill="#6cdcc0"/><polygon points="0,82.5 82.5,165 0,165" fill="#28d2a7"/><rect x="82.5" y="82.5" width="82.5" height="82.5" fill="#d1e3f5"/><path d="M 82.5 165 A 82.5 82.5 0 0 0 165 82.5 L 82.5 82.5" fill="#99ccff"/><rect x="165" y="82.5" width="82.5" height="82.5" fill="#45d6b2"/><path d="M 165 82.5 A 82.5 82.5 0 0 0 247.5 165 L 247.5 82.5" fill="#d1e3f5"/><rect x="247.5" y="82.5" width="82.5" height="82.5" fill="#f0f0f0"/><rect x="247.5" y="82.5" width="41.25" height="41.25" fill="#20d1a5"/><path d="M 247.5 123.75 A 41.25 41.25 0 0 0 288.75 82.5 L 247.5 82.5" fill="#e4eeec"/><rect x="288.75" y="82.5" width="41.25" height="41.25" fill="#e7ecf2"/><path d="M 288.75 82.5 A 41.25 41.25 0 0 0 330 123.75 L 330 82.5" fill="#cacaca"/><rect x="247.5" y="123.75" width="41.25" height="41.25" fill="#edeff0"/><path d="M 247.5 123.75 A 41.25 41.25 0 0 1 288.75 165 L 247.5 165" fill="#b6d8fa"/><rect x="288.75" y="123.75" width="41.25" height="41.25" fill="#e5ecf2"/><path d="M 288.75 165 A 41.25 41.25 0 0 1  330 123.75 L 330 165" fill="#acd4fc"/><rect x="0" y="165" width="82.5" height="82.5" fill="#f0f0f0"/><rect x="0" y="165" width="41.25" height="41.25" fill="#e9edf1"/><path d="M 0 165 A 41.25 41.25 0 0 0 41.25 206.25 L 41.25 165" fill="#89e0ca"/><rect x="41.25" y="165" width="41.25" height="41.25" fill="#cce1f6"/><path d="M 41.25 206.25 A 41.25 41.25 0 0 0 82.5 165 L 41.25 165" fill="#d8e6f4"/><rect x="0" y="206.25" width="41.25" height="41.25" fill="#dcdcdc"/><path d="M 0 247.5 A 41.25 41.25 0 0 1  41.25 206.25 L 41.25 247.5" fill="#73ddc3"/><rect x="41.25" y="206.25" width="41.25" height="41.25" fill="#505050"/><path d="M 41.25 206.25 A 41.25 41.25 0 0 1 82.5 247.5 L 41.25 247.5" fill="#d6e5f5"/><rect x="82.5" y="165" width="82.5" height="82.5" fill="#f0f0f0"/><rect x="82.5" y="165" width="41.25" height="41.25" fill="#dae7f4"/><path d="M 82.5 206.25 A 41.25 41.25 0 0 1 123.75 165 L 123.75 175.3125 A 30.9375 30.9375 0 0 0 92.8125 206.25" fill="#19d0a2"/><rect x="123.75" y="165" width="41.25" height="41.25" fill="#9dcefe"/><path d="M 123.75 165 A 41.25 41.25 0 0 1 165 206.25 L 154.6875 206.25 A 30.9375 30.9375 0 0 0 123.75 175.3125" fill="#494949"/><rect x="82.5" y="206.25" width="41.25" height="41.25" fill="#e8ecf1"/><path d="M 82.5 206.25 A 41.25 41.25 0 0 0 123.75 247.5 L 123.75 237.1875 A 30.9375 30.9375 0 0 1 92.8125 206.25" fill="#cbcbcb"/><rect x="123.75" y="206.25" width="41.25" height="41.25" fill="#dce8f3"/><path d="M 123.75 247.5 A 41.25 41.25 0 0 0 165 206.25 L 154.6875 206.25 A 30.9375 30.9375 0 0 1 123.75 237.1875" fill="#dde8f3"/><rect x="165" y="165" width="82.5" height="82.5" fill="#f0f0f0"/><rect x="165" y="165" width="41.25" height="41.25" fill="#4d4d4d"/><circle cx="185.625" cy="185.625" r="20.625" fill="#9ccdfe"/><rect x="206.25" y="165" width="41.25" height="41.25" fill="#a2d0fe"/><rect x="206.25" y="165" width="41.25" height="41.25" fill="#9ccdfe"/><rect x="165" y="206.25" width="41.25" height="41.25" fill="#d5ece6"/><circle cx="185.625" cy="226.875" r="20.625" fill="#abd4fc"/><rect x="206.25" y="206.25" width="41.25" height="41.25" fill="#d0d0d0"/><rect x="206.25" y="206.25" width="41.25" height="41.25" fill="#afd5fb"/><rect x="247.5" y="165" width="82.5" height="82.5" fill="#f0f0f0"/><rect x="247.5" y="165" width="41.25" height="41.25" fill="#69dcbf"/><path d="M 247.5 206.25 A 41.25 41.25 0 0 0 288.75 165 L 247.5 165" fill="#dee8f3"/><rect x="288.75" y="165" width="41.25" height="41.25" fill="#eaeaea"/><path d="M 288.75 165 A 41.25 41.25 0 0 0 330 206.25 L 330 165" fill="#bcdaf9"/><rect x="247.5" y="206.25" width="41.25" height="41.25" fill="#99e3d1"/><path d="M 247.5 206.25 A 41.25 41.25 0 0 1 288.75 247.5 L 247.5 247.5" fill="#a1cffe"/><rect x="288.75" y="206.25" width="41.25" height="41.25" fill="#92e2ce"/><path d="M 288.75 247.5 A 41.25 41.25 0 0 1  330 206.25 L 330 247.5" fill="#6cdcc0"/><rect x="0" y="247.5" width="82.5" height="82.5" fill="#f0f0f0"/><rect x="0" y="247.5" width="41.25" height="41.25" fill="#ededed"/><polygon points="41.25,247.5 41.25,288.75 0,288.75" fill="#d3ece6"/><rect x="41.25" y="247.5" width="41.25" height="41.25" fill="#a2d0fe"/><polygon points="41.25,247.5 82.5,247.5 41.25,288.75" fill="#b0b0b0"/><rect x="0" y="288.75" width="41.25" height="41.25" fill="#87e0ca"/><polygon points="0,288.75 41.25,288.75 41.25,330" fill="#4d4d4d"/><rect x="41.25" y="288.75" width="41.25" height="41.25" fill="#bcdbf9"/><polygon points="41.25,288.75 82.5,330 41.25,330" fill="#626262"/><rect x="82.5" y="247.5" width="82.5" height="82.5" fill="#f0f0f0"/><rect x="82.5" y="247.5" width="41.25" height="41.25" fill="#c5def7"/><path d="M 82.5 288.75 A 41.25 41.25 0 0 1  123.75 247.5 L 123.75 288.75" fill="#a5d1fd"/><rect x="123.75" y="247.5" width="41.25" height="41.25" fill="#d9e7f4"/><path d="M 123.75 247.5 A 41.25 41.25 0 0 1 165 288.75 L 123.75 288.75" fill="#4ed8b5"/><rect x="82.5" y="288.75" width="41.25" height="41.25" fill="#3e3e3e"/><path d="M 82.5 288.75 A 41.25 41.25 0 0 0 123.75 330 L 123.75 288.75" fill="#ececec"/><rect x="123.75" y="288.75" width="41.25" height="41.25" fill="#38d4ad"/><path d="M 123.75 330 A 41.25 41.25 0 0 0 165 288.75 L 123.75 288.75" fill="#c9e0f7"/><rect x="165" y="247.5" width="82.5" height="82.5" fill="#bedbf9"/><path d="M 165 330 A 82.5 82.5 0 0 0 247.5 247.5 L 165 247.5" fill="#636363"/><rect x="247.5" y="247.5" width="82.5" height="82.5" fill="#f0f0f0"/><rect x="247.5" y="247.5" width="41.25" height="41.25" fill="#c0dcf8"/><circle cx="268.125" cy="268.125" r="20.625" fill="#cee2f6"/><rect x="288.75" y="247.5" width="41.25" height="41.25" fill="#cde1f6"/><rect x="288.75" y="247.5" width="41.25" height="41.25" fill="#6c6c6c"/><rect x="247.5" y="288.75" width="41.25" height="41.25" fill="#a7d2fd"/><circle cx="268.125" cy="309.375" r="20.625" fill="#656565"/><rect x="288.75" y="288.75" width="41.25" height="41.25" fill="#e0e9f3"/><rect x="288.75" y="288.75" width="41.25" height="41.25" fill="#676767"/></g></svg>